<svg xmlns="http://www.w3.org/2000/svg" xmlns:xlink="http://www.w3.org/1999/xlink" width="500" zoomAndPan="magnify" viewBox="0 0 375 374.999991" height="500" preserveAspectRatio="xMidYMid meet" version="1.0"><defs><g/></defs><rect x="-37.5" width="450" fill="#ffffff" y="-37.499999" height="449.999989" fill-opacity="1"/><rect x="-37.5" width="450" fill="#ffffff" y="-37.499999" height="449.999989" fill-opacity="1"/><rect x="-37.5" width="450" fill="#ffffff" y="-37.499999" height="449.999989" fill-opacity="1"/><g fill="#000000" fill-opacity="1"><g transform="translate(152.344012, 259.730775)"><g><path d="M -1.722656 0.960938 C -0.730469 1.824219 0.324219 1.996094 1.652344 1.78125 L 1.820312 1.753906 C 3.152344 1.539062 4.234375 0.851562 4.710938 -0.417969 C 4.964844 -0.972656 5.3125 -4.101562 6.089844 -9.863281 C 6.730469 -15.429688 7.425781 -21.6875 8.292969 -28.996094 C 8.699219 -32.820312 8.914062 -36.78125 9.320312 -40.601562 C 9.730469 -44.425781 9.996094 -48.054688 10.457031 -51.542969 C 10.667969 -54.480469 10.929688 -57.082031 11.386719 -59.546875 C 11.675781 -61.984375 11.820312 -63.203125 12.097656 -63.589844 C 12.351562 -64.140625 15.070312 -65.261719 20.261719 -66.957031 C 25.3125 -68.453125 30.695312 -70.003906 36.632812 -71.304688 C 40.574219 -72.285156 43.042969 -72.851562 44.152344 -73.375 C 45.125 -73.703125 46.042969 -74.363281 46.574219 -75.300781 C 47.132812 -76.074219 47.304688 -77.125 47.140625 -78.125 C 46.816406 -79.097656 46.152344 -80.015625 45.328125 -80.90625 C 44.746094 -81.324219 42.363281 -81.28125 38.203125 -80.609375 C 33.878906 -79.910156 28.96875 -78.605469 23.085938 -76.972656 C 20.476562 -76.210938 18.171875 -75.667969 16.371094 -75.203125 C 14.398438 -74.714844 13.234375 -74.527344 13.207031 -74.695312 C 13.042969 -74.667969 13.136719 -77.242188 13.714844 -82.117188 C 13.960938 -86.9375 14.460938 -92.3125 15.097656 -97.878906 C 15.398438 -102.367188 15.890625 -106.714844 16.300781 -110.535156 C 16.734375 -114.191406 17.050781 -116.460938 17.25 -117.347656 C 17.332031 -117.871094 18.085938 -118.507812 19.308594 -119.386719 C 20.421875 -119.90625 22.808594 -120.976562 26.640625 -122.621094 C 33.027344 -125.359375 39.636719 -127.792969 46.296875 -129.890625 C 52.957031 -131.992188 60.757812 -134.445312 69.914062 -136.949219 C 71.078125 -137.136719 73.714844 -137.734375 77.679688 -138.542969 C 81.644531 -139.355469 85.78125 -140.191406 90.246094 -141.085938 C 97.207031 -142.378906 101.671875 -143.269531 103.617188 -143.925781 C 105.417969 -144.386719 106.695312 -144.9375 107.253906 -145.710938 C 108.117188 -146.703125 108.457031 -147.78125 108.269531 -148.945312 C 108.109375 -149.945312 107.445312 -150.863281 106.453125 -151.726562 C 105.707031 -152.117188 104.324219 -152.234375 102.464844 -152.105469 C 100.46875 -151.785156 95.644531 -151.003906 88.015625 -149.601562 C 76.089844 -147.335938 65.074219 -144.703125 54.945312 -141.875 C 44.84375 -138.875 35.128906 -135.601562 26.160156 -131.933594 C 24.078125 -131.085938 22.300781 -130.457031 20.859375 -129.882812 C 19.414062 -129.308594 18.582031 -129.171875 18.582031 -129.171875 C 18.417969 -129.144531 18.335938 -129.644531 18.394531 -130.335938 C 18.285156 -131.003906 18.347656 -131.695312 18.542969 -132.582031 C 18.722656 -134.65625 18.480469 -136.15625 17.597656 -137.378906 C 16.746094 -138.4375 15.472656 -138.914062 13.808594 -138.644531 C 12.3125 -138.402344 11.226562 -137.714844 10.722656 -136.609375 C 10.21875 -135.503906 9.683594 -133.539062 9.5 -130.4375 C 9.382812 -129.050781 9.265625 -127.667969 9.09375 -126.617188 C 8.949219 -125.398438 8.722656 -124.679688 8.554688 -124.652344 C 8.417969 -124.457031 7.472656 -123.964844 5.722656 -123.167969 C 4 -122.207031 2.082031 -121.386719 -0.136719 -120.34375 C -6 -117.519531 -10.417969 -115.269531 -13.195312 -113.457031 C -16.144531 -111.613281 -17.8125 -110.320312 -18.011719 -109.433594 C -18.515625 -108.328125 -18.328125 -107.164062 -17.832031 -106.21875 C -17.3125 -105.109375 -16.511719 -104.382812 -15.433594 -104.046875 C -14.714844 -103.820312 -13.523438 -103.84375 -12.246094 -104.390625 C -10.96875 -104.9375 -8.273438 -106.226562 -4.023438 -108.449219 C 0.867188 -110.945312 4.035156 -112.480469 5.476562 -113.054688 C 6.753906 -113.605469 7.445312 -113.546875 7.554688 -112.878906 C 7.6875 -112.046875 7.480469 -109.109375 6.929688 -104.070312 C 6.402344 -98.863281 5.710938 -93.628906 5.238281 -88.089844 C 4.605469 -83.550781 4.199219 -79.726562 3.738281 -76.238281 C 3.113281 -72.722656 2.742188 -70.785156 2.601562 -70.589844 C 2.324219 -70.203125 1.851562 -69.957031 1.046875 -69.65625 C 0.101562 -69.164062 -0.675781 -68.695312 -1.507812 -68.5625 C -3.453125 -67.90625 -4.703125 -67.191406 -5.566406 -66.199219 C -6.570312 -65.011719 -6.910156 -63.933594 -6.71875 -62.769531 C -6.503906 -61.4375 -5.816406 -60.355469 -4.710938 -59.847656 C -3.578125 -59.179688 -2.195312 -59.0625 -0.585938 -59.664062 C 0.582031 -59.851562 1.386719 -60.152344 2.023438 -60.425781 C 1.90625 -59.039062 1.875 -58.179688 1.953125 -57.683594 C 1.894531 -56.988281 1.632812 -54.386719 1.304688 -50.066406 C 0.839844 -45.550781 0.261719 -40.675781 -0.238281 -35.304688 C -1.542969 -23.3125 -2.335938 -14.476562 -2.617188 -8.796875 C -2.910156 -5.335938 -2.839844 -2.785156 -2.570312 -1.121094 C -2.410156 -0.125 -2.109375 0.683594 -1.722656 0.960938 Z M -1.722656 0.960938 "/></g></g></g><path stroke-linecap="butt" transform="matrix(-2.1343, -0.000000000000000261, 0.000000000000000261, -2.134051, 328.872523, 321.969236)" fill="none" stroke-linejoin="miter" d="M 0.000669613 1.499357 L 133.989662 1.499357 " stroke="#000000" stroke-width="3" stroke-opacity="1" stroke-miterlimit="4"/><path stroke-linecap="butt" transform="matrix(-2.134298, 0.000000242067, -0.000000242039, -2.134051, 332.073585, 52.465847)" fill="none" stroke-linejoin="miter" d="M -0.000297062 1.4996 L 134.997265 1.499615 " stroke="#000000" stroke-width="3" stroke-opacity="1" stroke-miterlimit="4"/><path stroke-linecap="butt" transform="matrix(0.000000000000000606, 2.137704, -2.134051, 0.000000000000000605, 49.338829, 46.070102)" fill="none" stroke-linejoin="miter" d="M 0.0000985755 1.500485 L 127.787596 1.500485 " stroke="#000000" stroke-width="3" stroke-opacity="1" stroke-miterlimit="4"/><path stroke-linecap="butt" transform="matrix(0.000000000000000131, 2.137704, -2.134051, 0.000000000000000131, 332.093507, 49.271147)" fill="none" stroke-linejoin="miter" d="M -0.000755911 1.500846 L 127.786741 1.500846 " stroke="#000000" stroke-width="3" stroke-opacity="1" stroke-miterlimit="4"/></svg>