<svg xmlns="http://www.w3.org/2000/svg" xmlns:xlink="http://www.w3.org/1999/xlink" width="500" zoomAndPan="magnify" viewBox="0 0 375 374.999991" height="500" preserveAspectRatio="xMidYMid meet" version="1.0"><defs><g/><clipPath id="91688facfc"><path d="M 76.777344 73 L 298.027344 73 L 298.027344 302 L 76.777344 302 Z M 76.777344 73 " clip-rule="nonzero"/></clipPath></defs><rect x="-37.5" width="450" fill="#ffffff" y="-37.499999" height="449.999989" fill-opacity="1"/><rect x="-37.5" width="450" fill="#ffffff" y="-37.499999" height="449.999989" fill-opacity="1"/><rect x="-37.5" width="450" fill="#ffffff" y="-37.499999" height="449.999989" fill-opacity="1"/><g clip-path="url(#91688facfc)"><path fill="#3d3b3a" d="M 159.589844 76.703125 C 161.382812 76.253906 163.183594 75.847656 164.996094 75.484375 C 166.808594 75.121094 168.628906 74.804688 170.453125 74.53125 C 172.28125 74.257812 174.113281 74.027344 175.953125 73.84375 C 177.792969 73.65625 179.632812 73.519531 181.480469 73.421875 C 183.324219 73.328125 185.171875 73.277344 187.019531 73.273438 C 188.867188 73.265625 190.714844 73.308594 192.558594 73.390625 C 194.40625 73.476562 196.246094 73.605469 198.085938 73.78125 C 199.925781 73.953125 201.761719 74.171875 203.589844 74.4375 C 205.417969 74.699219 207.238281 75.007812 209.054688 75.359375 C 210.867188 75.710938 212.671875 76.105469 214.46875 76.546875 C 216.261719 76.984375 218.046875 77.46875 219.816406 77.996094 C 221.585938 78.519531 223.34375 79.089844 225.089844 79.703125 C 226.832031 80.3125 228.558594 80.96875 230.273438 81.664062 C 231.984375 82.359375 233.679688 83.097656 235.355469 83.875 C 237.03125 84.652344 238.6875 85.472656 240.324219 86.332031 C 241.960938 87.191406 243.574219 88.089844 245.167969 89.023438 C 246.761719 89.960938 248.328125 90.9375 249.875 91.953125 C 251.421875 92.964844 252.941406 94.015625 254.433594 95.105469 C 255.929688 96.191406 257.398438 97.316406 258.835938 98.472656 C 260.277344 99.632812 261.6875 100.824219 263.070312 102.054688 C 264.453125 103.28125 265.804688 104.542969 267.125 105.835938 C 268.445312 107.128906 269.734375 108.453125 270.988281 109.808594 C 272.246094 111.164062 273.46875 112.550781 274.65625 113.964844 C 275.847656 115.382812 277 116.824219 278.121094 118.296875 C 279.238281 119.769531 280.324219 121.265625 281.371094 122.789062 C 282.414062 124.3125 283.425781 125.863281 284.394531 127.4375 C 285.367188 129.007812 286.300781 130.605469 287.191406 132.222656 C 288.085938 133.84375 288.941406 135.480469 289.753906 137.140625 C 290.570312 138.800781 291.34375 140.480469 292.074219 142.179688 C 292.808594 143.878906 293.5 145.59375 294.148438 147.324219 C 294.796875 149.054688 295.40625 150.800781 295.96875 152.5625 C 296.535156 154.324219 297.054688 156.097656 297.535156 157.882812 C 297.710938 158.542969 297.886719 159.214844 298.054688 159.898438 L 296.308594 160.507812 C 296.132812 159.789062 295.949219 159.074219 295.757812 158.355469 C 295.28125 156.585938 294.765625 154.828125 294.207031 153.082031 C 293.644531 151.339844 293.042969 149.609375 292.398438 147.890625 C 291.753906 146.175781 291.070312 144.476562 290.339844 142.796875 C 289.613281 141.113281 288.84375 139.449219 288.035156 137.804688 C 287.226562 136.160156 286.378906 134.539062 285.488281 132.933594 C 284.601562 131.332031 283.675781 129.75 282.707031 128.195312 C 281.742188 126.636719 280.738281 125.105469 279.699219 123.59375 C 278.660156 122.085938 277.582031 120.605469 276.46875 119.148438 C 275.355469 117.695312 274.207031 116.265625 273.023438 114.867188 C 271.839844 113.46875 270.625 112.097656 269.375 110.757812 C 268.125 109.421875 266.84375 108.113281 265.527344 106.835938 C 264.214844 105.558594 262.871094 104.316406 261.496094 103.105469 C 260.121094 101.894531 258.714844 100.714844 257.285156 99.574219 C 255.851562 98.433594 254.390625 97.324219 252.90625 96.253906 C 251.417969 95.183594 249.90625 94.152344 248.371094 93.15625 C 246.832031 92.160156 245.273438 91.199219 243.6875 90.28125 C 242.105469 89.359375 240.5 88.480469 238.871094 87.636719 C 237.242188 86.796875 235.597656 85.996094 233.929688 85.234375 C 232.265625 84.476562 230.582031 83.753906 228.878906 83.078125 C 227.179688 82.398438 225.460938 81.765625 223.730469 81.167969 C 221.996094 80.574219 220.25 80.023438 218.492188 79.515625 C 216.730469 79.007812 214.960938 78.542969 213.179688 78.121094 C 211.394531 77.699219 209.605469 77.324219 207.804688 76.988281 C 206.003906 76.65625 204.195312 76.367188 202.378906 76.121094 C 200.566406 75.875 198.746094 75.675781 196.921875 75.519531 C 195.09375 75.363281 193.269531 75.25 191.4375 75.183594 C 189.609375 75.117188 187.777344 75.097656 185.945312 75.121094 C 184.113281 75.144531 182.285156 75.210938 180.457031 75.324219 C 178.628906 75.4375 176.804688 75.59375 174.984375 75.796875 C 173.164062 76 171.351562 76.246094 169.542969 76.539062 C 167.734375 76.828125 165.933594 77.164062 164.144531 77.542969 C 162.351562 77.925781 160.570312 78.347656 158.800781 78.8125 C 159.074219 78.117188 159.34375 77.421875 159.589844 76.707031 Z M 78.523438 214.738281 C 78.671875 215.324219 78.816406 215.910156 78.976562 216.496094 C 79.453125 218.273438 79.96875 220.035156 80.53125 221.785156 C 81.09375 223.535156 81.699219 225.269531 82.34375 226.988281 C 82.992188 228.707031 83.679688 230.410156 84.410156 232.097656 C 85.140625 233.78125 85.910156 235.449219 86.722656 237.097656 C 87.535156 238.746094 88.386719 240.375 89.277344 241.980469 C 90.171875 243.585938 91.101562 245.167969 92.070312 246.730469 C 93.039062 248.289062 94.046875 249.828125 95.089844 251.335938 C 96.136719 252.847656 97.21875 254.332031 98.335938 255.789062 C 99.453125 257.25 100.605469 258.679688 101.792969 260.078125 C 102.980469 261.480469 104.199219 262.851562 105.457031 264.195312 C 106.710938 265.535156 107.996094 266.84375 109.316406 268.125 C 110.636719 269.402344 111.984375 270.648438 113.367188 271.859375 C 114.746094 273.070312 116.15625 274.246094 117.59375 275.390625 C 119.03125 276.53125 120.496094 277.640625 121.988281 278.710938 C 123.480469 279.78125 124.996094 280.8125 126.539062 281.808594 C 128.082031 282.804688 129.648438 283.765625 131.238281 284.683594 C 132.828125 285.601562 134.441406 286.480469 136.074219 287.320312 C 137.707031 288.164062 139.359375 288.960938 141.03125 289.71875 C 142.703125 290.480469 144.390625 291.195312 146.101562 291.871094 C 147.808594 292.546875 149.53125 293.183594 151.269531 293.773438 C 153.007812 294.363281 154.757812 294.914062 156.523438 295.417969 C 158.289062 295.921875 160.066406 296.382812 161.851562 296.800781 C 163.640625 297.21875 165.4375 297.59375 167.246094 297.921875 C 169.050781 298.253906 170.863281 298.539062 172.683594 298.777344 C 174.503906 299.019531 176.328125 299.214844 178.160156 299.367188 C 179.988281 299.515625 181.820312 299.621094 183.65625 299.683594 C 185.492188 299.742188 187.328125 299.757812 189.164062 299.730469 C 190.996094 299.699219 192.832031 299.625 194.664062 299.507812 C 196.496094 299.386719 198.324219 299.222656 200.148438 299.015625 C 201.972656 298.804688 203.789062 298.550781 205.601562 298.253906 C 207.414062 297.953125 209.214844 297.613281 211.011719 297.222656 C 212.804688 296.835938 214.589844 296.40625 216.363281 295.929688 C 216.078125 296.628906 215.800781 297.332031 215.542969 298.042969 C 213.75 298.5 211.945312 298.914062 210.128906 299.28125 C 208.316406 299.652344 206.492188 299.976562 204.660156 300.257812 C 202.832031 300.539062 200.996094 300.773438 199.152344 300.964844 C 197.308594 301.15625 195.464844 301.304688 193.613281 301.40625 C 191.765625 301.507812 189.914062 301.5625 188.0625 301.574219 C 186.210938 301.585938 184.359375 301.550781 182.511719 301.46875 C 180.660156 301.390625 178.8125 301.265625 176.96875 301.097656 C 175.125 300.929688 173.285156 300.714844 171.449219 300.457031 C 169.617188 300.195312 167.789062 299.894531 165.972656 299.546875 C 164.152344 299.199219 162.34375 298.804688 160.542969 298.371094 C 158.742188 297.933594 156.953125 297.453125 155.179688 296.929688 C 153.402344 296.40625 151.636719 295.839844 149.890625 295.230469 C 148.140625 294.621094 146.40625 293.96875 144.691406 293.277344 C 142.972656 292.582031 141.273438 291.847656 139.589844 291.070312 C 137.910156 290.292969 136.246094 289.476562 134.605469 288.621094 C 132.964844 287.761719 131.34375 286.863281 129.746094 285.929688 C 128.148438 284.992188 126.574219 284.015625 125.023438 283.003906 C 123.472656 281.992188 121.945312 280.941406 120.445312 279.851562 C 118.945312 278.765625 117.472656 277.640625 116.03125 276.480469 C 114.585938 275.324219 113.167969 274.128906 111.78125 272.898438 C 110.394531 271.671875 109.039062 270.410156 107.714844 269.117188 C 106.386719 267.820312 105.09375 266.496094 103.832031 265.136719 C 102.570312 263.78125 101.34375 262.390625 100.152344 260.976562 C 98.957031 259.558594 97.800781 258.113281 96.675781 256.636719 C 95.554688 255.164062 94.464844 253.664062 93.417969 252.136719 C 92.367188 250.609375 91.355469 249.058594 90.378906 247.480469 C 89.40625 245.90625 88.46875 244.308594 87.570312 242.683594 C 86.675781 241.0625 85.820312 239.421875 85 237.757812 C 84.183594 236.09375 83.410156 234.410156 82.671875 232.710938 C 81.9375 231.007812 81.246094 229.289062 80.59375 227.554688 C 79.941406 225.820312 79.332031 224.070312 78.765625 222.304688 C 78.203125 220.539062 77.679688 218.761719 77.199219 216.972656 C 77.054688 216.433594 76.917969 215.890625 76.777344 215.351562 Z M 78.523438 214.738281 " fill-opacity="1" fill-rule="evenodd"/></g><g fill="#000000" fill-opacity="1"><g transform="translate(154.326015, 254.83674)"><g><path d="M -1.496094 0.835938 C -0.632812 1.585938 0.28125 1.734375 1.4375 1.546875 L 1.582031 1.523438 C 2.738281 1.339844 3.679688 0.742188 4.097656 -0.363281 C 4.316406 -0.84375 4.617188 -3.566406 5.292969 -8.570312 C 5.847656 -13.410156 6.453125 -18.847656 7.207031 -25.203125 C 7.5625 -28.523438 7.746094 -31.964844 8.101562 -35.289062 C 8.457031 -38.609375 8.6875 -41.761719 9.089844 -44.796875 C 9.269531 -47.347656 9.5 -49.609375 9.894531 -51.75 C 10.148438 -53.867188 10.273438 -54.925781 10.515625 -55.261719 C 10.734375 -55.742188 13.097656 -56.71875 17.609375 -58.191406 C 22 -59.492188 26.679688 -60.839844 31.835938 -61.972656 C 35.261719 -62.820312 37.40625 -63.316406 38.371094 -63.769531 C 39.21875 -64.050781 40.015625 -64.625 40.476562 -65.441406 C 40.960938 -66.113281 41.109375 -67.027344 40.96875 -67.898438 C 40.6875 -68.742188 40.113281 -69.539062 39.394531 -70.3125 C 38.890625 -70.675781 36.816406 -70.640625 33.203125 -70.054688 C 29.441406 -69.449219 25.175781 -68.3125 20.0625 -66.894531 C 17.796875 -66.230469 15.792969 -65.761719 14.226562 -65.359375 C 12.515625 -64.933594 11.503906 -64.769531 11.480469 -64.914062 C 11.335938 -64.890625 11.417969 -67.132812 11.921875 -71.367188 C 12.136719 -75.554688 12.566406 -80.226562 13.121094 -85.0625 C 13.382812 -88.964844 13.8125 -92.742188 14.164062 -96.0625 C 14.542969 -99.242188 14.816406 -101.214844 14.988281 -101.984375 C 15.066406 -102.441406 15.71875 -102.992188 16.78125 -103.757812 C 17.746094 -104.210938 19.824219 -105.140625 23.152344 -106.566406 C 28.703125 -108.945312 34.445312 -111.0625 40.234375 -112.886719 C 46.023438 -114.710938 52.800781 -116.84375 60.761719 -119.019531 C 61.773438 -119.183594 64.0625 -119.699219 67.511719 -120.40625 C 70.957031 -121.109375 74.550781 -121.839844 78.429688 -122.613281 C 84.480469 -123.738281 88.363281 -124.515625 90.050781 -125.085938 C 91.617188 -125.484375 92.726562 -125.960938 93.214844 -126.632812 C 93.964844 -127.496094 94.257812 -128.433594 94.09375 -129.445312 C 93.953125 -130.3125 93.378906 -131.113281 92.515625 -131.863281 C 91.867188 -132.203125 90.664062 -132.304688 89.050781 -132.195312 C 87.316406 -131.914062 83.121094 -131.234375 76.492188 -130.015625 C 66.128906 -128.046875 56.554688 -125.757812 47.753906 -123.300781 C 38.972656 -120.695312 30.53125 -117.847656 22.738281 -114.660156 C 20.925781 -113.921875 19.382812 -113.378906 18.128906 -112.878906 C 16.871094 -112.378906 16.148438 -112.261719 16.148438 -112.261719 C 16.003906 -112.238281 15.933594 -112.671875 15.988281 -113.273438 C 15.894531 -113.851562 15.945312 -114.453125 16.117188 -115.222656 C 16.269531 -117.027344 16.058594 -118.332031 15.296875 -119.394531 C 14.554688 -120.3125 13.449219 -120.726562 12 -120.496094 C 10.699219 -120.285156 9.757812 -119.6875 9.320312 -118.726562 C 8.878906 -117.765625 8.414062 -116.058594 8.257812 -113.359375 C 8.152344 -112.15625 8.050781 -110.953125 7.902344 -110.039062 C 7.777344 -108.980469 7.582031 -108.355469 7.4375 -108.332031 C 7.316406 -108.164062 6.492188 -107.734375 4.972656 -107.042969 C 3.476562 -106.207031 1.8125 -105.496094 -0.121094 -104.589844 C -5.214844 -102.136719 -9.054688 -100.179688 -11.46875 -98.601562 C -14.03125 -97 -15.480469 -95.878906 -15.652344 -95.109375 C -16.089844 -94.148438 -15.929688 -93.132812 -15.5 -92.3125 C -15.046875 -91.347656 -14.351562 -90.71875 -13.414062 -90.425781 C -12.789062 -90.226562 -11.753906 -90.246094 -10.640625 -90.722656 C -9.53125 -91.199219 -7.191406 -92.320312 -3.496094 -94.25 C 0.753906 -96.421875 3.503906 -97.757812 4.761719 -98.253906 C 5.871094 -98.730469 6.472656 -98.679688 6.566406 -98.101562 C 6.683594 -97.378906 6.5 -94.828125 6.019531 -90.445312 C 5.566406 -85.921875 4.964844 -81.371094 4.554688 -76.558594 C 4.003906 -72.613281 3.648438 -69.289062 3.25 -66.257812 C 2.703125 -63.203125 2.382812 -61.519531 2.261719 -61.351562 C 2.019531 -61.015625 1.609375 -60.800781 0.910156 -60.539062 C 0.0859375 -60.109375 -0.589844 -59.703125 -1.3125 -59.585938 C -3 -59.015625 -4.085938 -58.394531 -4.839844 -57.53125 C -5.710938 -56.5 -6.003906 -55.5625 -5.839844 -54.550781 C -5.652344 -53.394531 -5.054688 -52.453125 -4.09375 -52.015625 C -3.109375 -51.429688 -1.90625 -51.328125 -0.507812 -51.851562 C 0.503906 -52.015625 1.203125 -52.277344 1.757812 -52.515625 C 1.65625 -51.3125 1.628906 -50.5625 1.699219 -50.128906 C 1.648438 -49.527344 1.417969 -47.265625 1.136719 -43.511719 C 0.730469 -39.585938 0.226562 -35.351562 -0.207031 -30.683594 C -1.34375 -20.261719 -2.03125 -12.582031 -2.273438 -7.644531 C -2.527344 -4.636719 -2.46875 -2.421875 -2.234375 -0.972656 C -2.09375 -0.105469 -1.832031 0.59375 -1.496094 0.835938 Z M -1.496094 0.835938 "/></g></g></g></svg>