<svg xmlns="http://www.w3.org/2000/svg" xmlns:xlink="http://www.w3.org/1999/xlink" width="500" zoomAndPan="magnify" viewBox="0 0 375 187.499995" height="250" preserveAspectRatio="xMidYMid meet" version="1.0"><defs><g/><clipPath id="190303123d"><path d="M 0.5 0 L 374.5 0 L 374.5 187 L 0.5 187 Z M 0.5 0 " clip-rule="nonzero"/></clipPath></defs><g clip-path="url(#190303123d)"><path fill="#ffffff" d="M 0.5 0 L 374.5 0 L 374.5 194.480469 L 0.5 194.480469 Z M 0.5 0 " fill-opacity="1" fill-rule="nonzero"/><path fill="#ffffff" d="M 0.5 0 L 374.5 0 L 374.5 187 L 0.5 187 Z M 0.5 0 " fill-opacity="1" fill-rule="nonzero"/><path fill="#ffffff" d="M 0.5 0 L 374.5 0 L 374.5 187 L 0.5 187 Z M 0.5 0 " fill-opacity="1" fill-rule="nonzero"/></g><g fill="#000000" fill-opacity="1"><g transform="translate(78.398416, 127.689993)"><g><path d="M 18.855469 -48.886719 C 18.742188 -48.867188 18.613281 -48.90625 18.496094 -48.886719 L 18.324219 -48.859375 L 18.148438 -48.832031 C 17.523438 -48.609375 16.871094 -47.847656 16.203125 -46.421875 C 15.476562 -44.988281 14.363281 -42.234375 12.859375 -38.222656 C 12.230469 -36.5625 11.480469 -34.527344 10.554688 -32.105469 C 9.582031 -29.613281 8.734375 -27.441406 8.066406 -25.660156 C 7.347656 -23.808594 6.707031 -22.207031 6.148438 -20.859375 C 5.539062 -19.445312 5.234375 -18.738281 5.183594 -18.671875 C 5.085938 -18.535156 4.753906 -18.363281 4.308594 -18.167969 C 3.800781 -17.96875 3.246094 -17.699219 2.683594 -17.488281 C 2.058594 -17.269531 1.445312 -16.988281 0.890625 -16.71875 C 0.34375 -16.394531 -0.0429688 -16.210938 -0.257812 -16.054688 C -0.582031 -15.824219 -0.785156 -15.613281 -0.824219 -15.484375 C -0.914062 -15.292969 -0.875 -15.058594 -0.761719 -14.71875 C -0.648438 -14.019531 -0.339844 -13.589844 0.144531 -13.546875 C 0.523438 -13.429688 1.273438 -13.609375 2.394531 -14.089844 C 2.675781 -14.195312 2.957031 -14.300781 3.191406 -14.339844 C 3.421875 -14.375 3.550781 -14.335938 3.550781 -14.335938 C 3.585938 -14.105469 3.359375 -13.289062 2.769531 -11.757812 C 2.179688 -10.226562 1.492188 -8.558594 0.800781 -6.890625 C 0.273438 -5.730469 -0.21875 -4.691406 -0.660156 -3.722656 C -1.09375 -2.695312 -1.515625 -1.96875 -1.789062 -1.445312 C -2.398438 -0.390625 -2.933594 0.355469 -3.382812 0.90625 C -3.882812 1.523438 -4.390625 2.085938 -4.917969 2.53125 C -5.660156 3.128906 -6.128906 3.5625 -6.304688 3.949219 C -6.5 4.222656 -6.511719 4.523438 -6.464844 4.8125 C -6.445312 4.929688 -6.417969 5.105469 -6.339844 5.210938 C -6.109375 5.894531 -5.703125 6.1875 -5.121094 6.09375 L -5.0625 6.082031 C -4.480469 5.988281 -3.667969 5.441406 -2.507812 4.472656 C -1.457031 3.585938 -0.371094 2.15625 0.804688 0.167969 C 1.980469 -1.816406 3.570312 -5.304688 5.570312 -10.355469 C 6.082031 -11.632812 6.59375 -12.914062 7.09375 -14.25 C 7.605469 -15.53125 7.976562 -16.1875 8.085938 -16.265625 C 8.417969 -16.441406 9.203125 -16.746094 10.332031 -17.167969 C 11.480469 -17.472656 12.171875 -17.644531 12.289062 -17.664062 C 12.355469 -17.613281 12.433594 -17.507812 12.460938 -17.332031 C 12.488281 -17.15625 12.46875 -16.914062 12.457031 -16.613281 C 12.359375 -16.117188 12.277344 -15.507812 12.273438 -14.789062 C 12.164062 -13.992188 12.121094 -13.148438 12.136719 -12.3125 C 12.050781 -10.621094 12.089844 -8.894531 12.136719 -7.105469 C 12.128906 -5.308594 12.199219 -3.765625 12.328125 -2.589844 C 12.402344 -1.761719 12.488281 -1.238281 12.59375 -0.957031 C 12.640625 -0.664062 12.792969 -0.449219 13.066406 -0.253906 C 13.355469 0.0585938 13.789062 0.167969 14.257812 0.0898438 C 14.722656 0.015625 15.113281 -0.167969 15.347656 -0.5625 C 15.386719 -0.6875 15.410156 -0.933594 15.46875 -1.300781 C 15.472656 -1.660156 15.472656 -2.019531 15.472656 -2.378906 C 15.25 -3.777344 15.148438 -5.140625 15.15625 -6.578125 C 15.046875 -7.996094 15.042969 -9.492188 15.140625 -11.121094 C 15.253906 -14.132812 15.628906 -17.722656 16.273438 -21.898438 C 16.796875 -26.050781 17.660156 -31.457031 18.871094 -38.054688 C 19.230469 -39.910156 19.539062 -41.695312 19.761719 -43.285156 C 19.984375 -44.878906 20.113281 -45.917969 20.175781 -46.285156 C 20.167969 -46.703125 20.167969 -47.0625 20.113281 -47.410156 C 20.074219 -47.644531 19.96875 -47.925781 19.929688 -48.160156 C 19.679688 -48.597656 19.34375 -48.84375 18.855469 -48.886719 Z M 13.128906 -30.246094 C 13.296875 -30.691406 13.453125 -31.195312 13.710938 -31.835938 L 14.378906 -33.621094 C 14.804688 -34.707031 15.175781 -35.722656 15.511719 -36.617188 C 15.847656 -37.507812 16.023438 -37.894531 16.082031 -37.90625 C 16.089844 -37.847656 15.890625 -36.855469 15.589844 -35.011719 C 15.183594 -33.089844 14.792969 -31.054688 14.414062 -28.957031 C 14.046875 -27.164062 13.707031 -25.550781 13.457031 -24.136719 C 13.160156 -22.652344 12.988281 -21.847656 12.960938 -21.660156 C 12.871094 -21.46875 12.714844 -21.324219 12.433594 -21.21875 C 12.101562 -21.042969 11.652344 -20.851562 11.078125 -20.699219 C 10.28125 -20.449219 9.660156 -20.230469 9.308594 -20.175781 C 9.722656 -21.320312 10.007812 -22.140625 10.265625 -22.78125 C 10.519531 -23.421875 10.945312 -24.507812 11.535156 -26.039062 C 12.027344 -27.433594 12.578125 -28.839844 13.128906 -30.246094 Z M 13.128906 -30.246094 "/></g></g></g><g fill="#000000" fill-opacity="1"><g transform="translate(102.310755, 123.828996)"><g><path d="M -2.464844 -4.148438 C -2.058594 -3.855469 -1.679688 -3.738281 -1.390625 -3.785156 L -1.332031 -3.792969 C -1.097656 -3.832031 -0.765625 -4.003906 -0.347656 -4.371094 C 0.0820312 -4.679688 0.601562 -5.542969 1.160156 -6.890625 C 1.671875 -8.167969 2.414062 -10.265625 3.378906 -13.171875 C 4.296875 -16.015625 5.164062 -18.425781 5.929688 -20.347656 C 6.707031 -22.207031 7.464844 -23.824219 8.304688 -25.277344 C 9.324219 -27.117188 10.136719 -28.386719 10.859375 -29.101562 C 11.523438 -29.808594 11.71875 -29.71875 11.460938 -28.71875 C 11.234375 -27.90625 11.335938 -27.265625 11.644531 -26.835938 C 11.972656 -26.289062 12.417969 -26.121094 13.117188 -26.234375 C 13.527344 -26.300781 13.847656 -26.53125 14.140625 -26.9375 C 14.328125 -27.269531 14.574219 -27.964844 14.773438 -28.957031 C 14.972656 -29.945312 15.007812 -30.847656 14.882812 -31.605469 C 14.847656 -31.839844 14.761719 -32.003906 14.722656 -32.238281 C 14.414062 -33.027344 13.84375 -33.59375 12.972656 -33.8125 C 12.660156 -33.882812 12.359375 -33.890625 12.070312 -33.84375 C 11.496094 -33.691406 10.890625 -33.355469 10.25 -32.894531 C 9.242188 -32.074219 8.140625 -30.757812 6.9375 -28.945312 C 5.78125 -27.203125 4.625 -25.101562 3.535156 -22.59375 C 2.394531 -20.015625 1.308594 -17.085938 0.292969 -13.75 C -0.00390625 -12.984375 -0.25 -12.289062 -0.40625 -11.785156 C -0.613281 -11.210938 -0.75 -10.949219 -0.761719 -11.007812 C -0.886719 -11.046875 -0.804688 -12.019531 -0.523438 -13.980469 C -0.230469 -15.882812 0.140625 -18.035156 0.65625 -20.394531 C 1.15625 -22.867188 1.375 -24.460938 1.339844 -25.050781 C 1.246094 -25.636719 0.878906 -26.054688 0.183594 -26.300781 C -0.4375 -26.441406 -0.886719 -26.246094 -1.160156 -25.726562 C -1.496094 -25.191406 -1.839844 -24 -2.199219 -22.144531 C -3.453125 -16.199219 -4.066406 -11.851562 -4.109375 -9.152344 C -4.152344 -8.304688 -4.089844 -7.539062 -3.996094 -6.953125 C -3.761719 -5.496094 -3.25 -4.5625 -2.464844 -4.148438 Z M -2.464844 -4.148438 "/></g></g></g><g fill="#000000" fill-opacity="1"><g transform="translate(119.049393, 121.126297)"><g><path d="M 0.660156 -1.84375 L 1.300781 -1.945312 C 2.351562 -2.113281 3.355469 -2.578125 4.417969 -3.40625 C 5.644531 -4.324219 7.109375 -5.996094 8.773438 -8.296875 C 9.847656 -9.789062 11.023438 -11.414062 12.21875 -13.28125 C 13.363281 -15.082031 14.304688 -16.671875 15.039062 -18.046875 C 15.402344 -18.765625 15.714844 -19.414062 15.933594 -19.925781 C 16.148438 -20.441406 16.277344 -20.761719 16.25 -20.9375 C 16.191406 -21.285156 15.960938 -21.605469 15.613281 -21.910156 C 15.214844 -22.144531 14.835938 -22.265625 14.429688 -22.199219 C 14.078125 -22.140625 13.765625 -21.851562 13.484375 -21.386719 C 13.089844 -20.84375 12.472656 -19.847656 11.535156 -18.257812 C 9.386719 -14.5 7.324219 -11.355469 5.222656 -8.800781 C 3.070312 -6.179688 1.648438 -4.992188 0.898438 -5.171875 C 0.65625 -5.191406 0.453125 -5.339844 0.398438 -5.691406 C 0.351562 -5.980469 0.226562 -6.738281 0.0976562 -7.914062 C -0.0351562 -8.730469 -0.046875 -9.566406 -0.0234375 -10.527344 C -0.0585938 -11.480469 -0.015625 -12.324219 0.0859375 -13.179688 C 0.179688 -14.453125 0.472656 -16.355469 0.960938 -18.886719 C 1.398438 -21.351562 1.898438 -23.824219 2.355469 -26.171875 C 2.636719 -27.414062 2.863281 -28.589844 3.101562 -29.703125 C 3.292969 -30.753906 3.511719 -31.625 3.707031 -32.257812 C 4.074219 -33.691406 4.3125 -34.808594 4.550781 -35.5625 C 5.007812 -35.699219 5.40625 -35.820312 5.628906 -35.917969 C 5.921875 -35.964844 6.4375 -36.109375 7.246094 -36.296875 C 8.003906 -36.421875 8.75 -36.601562 9.570312 -36.734375 C 11.144531 -36.988281 12.183594 -37.214844 12.671875 -37.53125 C 13.167969 -37.792969 13.394531 -38.25 13.300781 -38.832031 C 13.1875 -39.53125 12.828125 -39.890625 12.324219 -40.050781 C 11.828125 -40.148438 10.644531 -40.078125 8.894531 -39.796875 L 5.570312 -39.257812 L 5.660156 -39.8125 L 5.867188 -40.742188 L 6.265625 -42.003906 C 6.371094 -42.441406 6.480469 -42.878906 6.589844 -43.3125 C 6.640625 -43.742188 6.710938 -44.050781 6.683594 -44.226562 C 6.609375 -44.691406 6.375 -45.015625 6.046875 -45.199219 C 5.71875 -45.386719 5.347656 -45.445312 5 -45.390625 L 4.824219 -45.363281 C 4.425781 -45.238281 4.160156 -45.015625 3.976562 -44.6875 C 3.796875 -44.300781 3.484375 -43.289062 3.007812 -41.777344 C 2.613281 -40.515625 2.335938 -39.636719 2.121094 -39.121094 C 1.855469 -38.539062 1.667969 -38.210938 1.496094 -38.183594 C 1.320312 -38.152344 0.921875 -38.03125 0.355469 -37.820312 C -0.265625 -37.597656 -0.945312 -37.367188 -1.628906 -37.140625 C -3.332031 -36.566406 -4.460938 -36.144531 -5.015625 -35.875 C -5.617188 -35.539062 -5.96875 -35.121094 -6.136719 -34.675781 C -6.324219 -34.347656 -6.34375 -34.105469 -6.265625 -33.996094 C -6.238281 -33.820312 -6.144531 -33.597656 -5.863281 -33.34375 C -5.574219 -33.03125 -5.371094 -32.886719 -5.183594 -32.855469 C -5 -32.824219 -4.59375 -32.890625 -4.019531 -33.042969 C -3.667969 -33.097656 -3.164062 -33.300781 -2.597656 -33.511719 C -2.023438 -33.664062 -1.507812 -33.808594 -1.0625 -34 C -0.605469 -34.132812 -0.148438 -34.265625 0.195312 -34.382812 C 0.542969 -34.4375 0.71875 -34.464844 0.777344 -34.476562 C 0.785156 -34.417969 0.773438 -34.117188 0.695312 -33.503906 C 0.554688 -32.882812 0.433594 -32.144531 0.214844 -31.273438 C -0.457031 -28.769531 -1.035156 -26.042969 -1.554688 -22.96875 C -2.125 -19.824219 -2.496094 -16.953125 -2.800781 -14.390625 C -2.984375 -12.921875 -3.078125 -11.652344 -3.132812 -10.503906 C -3.234375 -9.292969 -3.269531 -8.390625 -3.214844 -7.679688 C -3.207031 -7.261719 -3.140625 -6.855469 -3.085938 -6.503906 C -2.972656 -5.804688 -2.800781 -5.113281 -2.53125 -4.558594 C -2.148438 -3.664062 -1.675781 -2.960938 -1.074219 -2.578125 C -0.792969 -2.324219 -0.523438 -2.128906 -0.15625 -2.070312 C 0.175781 -1.882812 0.425781 -1.804688 0.660156 -1.84375 Z M 0.660156 -1.84375 "/></g></g></g><g fill="#000000" fill-opacity="1"><g transform="translate(135.78803, 118.423599)"><g/></g></g><g fill="#000000" fill-opacity="1"><g transform="translate(151.885117, 115.824488)"><g><path d="M 16.214844 -47.082031 C 16.097656 -47.0625 15.972656 -47.101562 15.855469 -47.082031 C 15.507812 -47.027344 15.292969 -46.875 15.195312 -46.738281 C 15 -46.464844 14.753906 -46.128906 14.578125 -45.742188 C 14.390625 -45.410156 14.242188 -44.847656 14.023438 -43.976562 C 13.746094 -43.09375 13.539062 -42.160156 13.320312 -41.289062 C 12.703125 -38.4375 11.914062 -35.554688 11.003906 -32.65625 C 10.097656 -29.757812 9.171875 -27.332031 8.179688 -25.316406 L 7.648438 -24.15625 C 6.910156 -24.277344 6.425781 -24.316406 6.117188 -24.386719 C 5.4375 -24.515625 4.953125 -24.558594 4.59375 -24.558594 C 4.242188 -24.503906 3.785156 -24.367188 3.21875 -24.160156 C 1.644531 -23.542969 0.144531 -22.464844 -1.28125 -20.917969 C -2.757812 -19.304688 -3.746094 -17.648438 -4.300781 -15.882812 C -4.78125 -14.429688 -4.992188 -13.136719 -4.816406 -12.027344 C -4.769531 -11.738281 -4.71875 -11.445312 -4.566406 -11.230469 C -4.164062 -9.859375 -3.324219 -9.097656 -2.042969 -8.945312 C -0.683594 -8.6875 0.824219 -9.347656 2.503906 -10.816406 C 4.179688 -12.285156 5.910156 -14.539062 7.695312 -17.578125 C 8.164062 -18.375 8.644531 -19.109375 9.015625 -19.769531 L 9.585938 -20.699219 C 9.585938 -20.699219 9.601562 -20.222656 9.558594 -19.375 C 9.476562 -18.40625 9.410156 -17.320312 9.316406 -16.046875 C 9.210938 -14.472656 9.117188 -12.84375 9.050781 -11.035156 C 8.933594 -9.164062 8.894531 -7.539062 8.871094 -6.21875 C 8.867188 -5.5 8.851562 -4.839844 8.871094 -4.363281 C 8.839844 -3.820312 8.894531 -3.472656 8.914062 -3.355469 C 8.941406 -3.179688 8.96875 -3.003906 9.113281 -2.847656 C 9.269531 -2.632812 9.40625 -2.535156 9.539062 -2.4375 C 9.683594 -2.28125 9.878906 -2.195312 10.132812 -2.113281 C 10.324219 -2.027344 10.5 -2.054688 10.675781 -2.082031 C 11.140625 -2.15625 11.511719 -2.457031 11.660156 -3.019531 C 11.820312 -3.523438 11.960938 -4.503906 11.984375 -5.824219 C 12.015625 -11.574219 12.429688 -17.148438 13.128906 -22.464844 C 13.777344 -27.71875 14.875 -33.519531 16.363281 -39.863281 C 16.960938 -42.472656 17.289062 -44.144531 17.410156 -44.882812 C 17.460938 -45.308594 17.519531 -45.675781 17.472656 -45.96875 C 17.445312 -46.144531 17.367188 -46.25 17.347656 -46.367188 C 17.203125 -46.523438 17.058594 -46.679688 16.855469 -46.828125 C 16.59375 -46.964844 16.398438 -47.050781 16.214844 -47.082031 Z M 2.480469 -20.210938 C 2.804688 -20.441406 3.242188 -20.691406 3.691406 -20.882812 C 4.136719 -21.074219 4.59375 -21.207031 4.945312 -21.265625 C 5.179688 -21.300781 5.351562 -21.332031 5.527344 -21.359375 C 5.652344 -21.320312 5.78125 -21.28125 5.855469 -21.171875 C 6.003906 -21.015625 5.785156 -20.503906 5.277344 -19.582031 C 4.765625 -18.664062 4.148438 -17.664062 3.414062 -16.648438 C 2.925781 -15.972656 2.4375 -15.292969 1.929688 -14.734375 C 1.441406 -14.054688 0.972656 -13.621094 0.601562 -13.324219 C -0.433594 -12.316406 -1.152344 -11.960938 -1.5 -12.265625 C -1.898438 -12.5 -1.855469 -13.34375 -1.421875 -14.730469 C -1.144531 -15.613281 -0.59375 -16.660156 0.1875 -17.742188 C 0.910156 -18.816406 1.683594 -19.601562 2.480469 -20.210938 Z M 2.480469 -20.210938 "/></g></g></g><g fill="#000000" fill-opacity="1"><g transform="translate(172.181444, 112.547349)"><g><path d="M 4.097656 -24.660156 L 3.613281 -24.699219 L 3.144531 -24.625 L 3.085938 -24.617188 C 1.464844 -24.292969 -0.117188 -22.960938 -1.527344 -20.578125 C -2.996094 -18.1875 -3.785156 -15.667969 -3.886719 -12.957031 C -3.890625 -12.238281 -3.835938 -11.527344 -3.742188 -10.945312 C -3.5625 -9.835938 -3.226562 -8.875 -2.628906 -8.132812 C -1.773438 -6.894531 -0.582031 -6.191406 0.992188 -6.085938 C 1.417969 -6.035156 1.835938 -6.042969 2.304688 -6.117188 C 3.820312 -6.363281 5.59375 -7.246094 7.621094 -8.769531 C 10.183594 -10.679688 12.734375 -13.425781 15.277344 -16.949219 C 16.214844 -18.175781 16.792969 -19.046875 17.078125 -19.511719 C 17.3125 -19.910156 17.421875 -20.347656 17.363281 -20.695312 C 17.289062 -21.164062 17.046875 -21.542969 16.640625 -21.835938 C 16.1875 -22.0625 15.757812 -22.113281 15.429688 -21.941406 C 15.320312 -21.863281 15.019531 -21.515625 14.511719 -20.953125 C 14.011719 -20.335938 13.464844 -19.648438 12.878906 -18.835938 C 10.804688 -16.105469 8.878906 -13.941406 7.09375 -12.394531 C 5.320312 -10.792969 3.730469 -9.878906 2.351562 -9.535156 C 1.777344 -9.382812 1.308594 -9.308594 1 -9.378906 C 0.648438 -9.320312 0.328125 -9.449219 0.175781 -9.664062 C -0.0976562 -9.859375 -0.328125 -10.179688 -0.519531 -10.628906 C -0.691406 -10.960938 -0.769531 -11.425781 -0.675781 -11.980469 C 0.296875 -12.613281 0.988281 -13.144531 1.46875 -13.523438 C 3.300781 -14.777344 4.628906 -16.1875 5.460938 -17.699219 C 6.304688 -19.152344 6.671875 -20.585938 6.433594 -22.042969 C 6.3125 -22.800781 6.035156 -23.414062 5.667969 -23.835938 C 5.242188 -24.246094 4.71875 -24.519531 4.097656 -24.660156 Z M 0.429688 -17.722656 C 0.703125 -18.246094 1.125 -18.972656 1.808594 -19.921875 C 2.503906 -20.8125 2.90625 -21.292969 3.136719 -21.332031 C 3.664062 -21.417969 3.582031 -20.804688 2.945312 -19.566406 C 2.316406 -18.265625 1.5625 -17.367188 0.8125 -16.828125 C 0.335938 -16.453125 0.0546875 -16.347656 0.0351562 -16.460938 C 0.015625 -16.578125 0.132812 -16.957031 0.429688 -17.722656 Z M 0.429688 -17.722656 "/></g></g></g><g fill="#000000" fill-opacity="1"><g transform="translate(190.086537, 109.656309)"><g/></g></g><g fill="#000000" fill-opacity="1"><g transform="translate(206.183624, 107.057198)"><g><path d="M -0.605469 0.335938 C -0.253906 0.640625 0.113281 0.699219 0.578125 0.625 L 0.636719 0.613281 C 1.105469 0.539062 1.484375 0.300781 1.652344 -0.148438 C 1.742188 -0.339844 1.863281 -1.4375 2.136719 -3.457031 C 2.359375 -5.40625 2.601562 -7.601562 2.90625 -10.164062 C 3.050781 -11.503906 3.125 -12.890625 3.265625 -14.230469 C 3.410156 -15.570312 3.503906 -16.84375 3.664062 -18.066406 C 3.738281 -19.09375 3.832031 -20.007812 3.992188 -20.871094 C 4.09375 -21.726562 4.144531 -22.152344 4.242188 -22.289062 C 4.328125 -22.480469 5.28125 -22.875 7.101562 -23.46875 C 8.871094 -23.992188 10.757812 -24.539062 12.839844 -24.992188 C 14.222656 -25.335938 15.085938 -25.535156 15.476562 -25.71875 C 15.816406 -25.832031 16.136719 -26.066406 16.324219 -26.394531 C 16.519531 -26.664062 16.582031 -27.035156 16.523438 -27.382812 C 16.410156 -27.722656 16.175781 -28.046875 15.886719 -28.359375 C 15.683594 -28.503906 14.847656 -28.488281 13.390625 -28.253906 C 11.875 -28.007812 10.152344 -27.550781 8.089844 -26.980469 C 7.175781 -26.710938 6.371094 -26.523438 5.738281 -26.359375 C 5.046875 -26.1875 4.640625 -26.121094 4.628906 -26.179688 C 4.570312 -26.171875 4.605469 -27.074219 4.808594 -28.78125 C 4.894531 -30.472656 5.070312 -32.355469 5.292969 -34.308594 C 5.398438 -35.878906 5.570312 -37.402344 5.714844 -38.742188 C 5.863281 -40.023438 5.976562 -40.820312 6.046875 -41.132812 C 6.074219 -41.316406 6.339844 -41.539062 6.769531 -41.847656 C 7.15625 -42.027344 7.996094 -42.402344 9.335938 -42.980469 C 11.578125 -43.9375 13.890625 -44.792969 16.226562 -45.527344 C 18.5625 -46.265625 21.296875 -47.125 24.503906 -48 C 24.914062 -48.066406 25.835938 -48.277344 27.226562 -48.5625 C 28.617188 -48.84375 30.066406 -49.140625 31.632812 -49.453125 C 34.070312 -49.90625 35.636719 -50.21875 36.316406 -50.449219 C 36.949219 -50.609375 37.398438 -50.800781 37.59375 -51.074219 C 37.898438 -51.421875 38.015625 -51.796875 37.949219 -52.207031 C 37.894531 -52.558594 37.660156 -52.878906 37.3125 -53.179688 C 37.050781 -53.320312 36.566406 -53.359375 35.914062 -53.316406 C 35.214844 -53.203125 33.523438 -52.929688 30.851562 -52.4375 C 26.671875 -51.644531 22.808594 -50.71875 19.257812 -49.726562 C 15.71875 -48.675781 12.3125 -47.527344 9.167969 -46.242188 C 8.441406 -45.945312 7.816406 -45.726562 7.3125 -45.523438 C 6.804688 -45.324219 6.511719 -45.277344 6.511719 -45.277344 C 6.453125 -45.265625 6.425781 -45.441406 6.449219 -45.683594 C 6.410156 -45.917969 6.429688 -46.160156 6.5 -46.472656 C 6.5625 -47.199219 6.476562 -47.722656 6.167969 -48.152344 C 5.871094 -48.523438 5.421875 -48.691406 4.839844 -48.597656 C 4.316406 -48.511719 3.933594 -48.269531 3.757812 -47.882812 C 3.582031 -47.496094 3.394531 -46.808594 3.328125 -45.71875 C 3.289062 -45.234375 3.246094 -44.75 3.1875 -44.378906 C 3.136719 -43.953125 3.058594 -43.699219 3 -43.691406 C 2.949219 -43.625 2.617188 -43.449219 2.003906 -43.171875 C 1.402344 -42.835938 0.730469 -42.546875 -0.046875 -42.183594 C -2.101562 -41.191406 -3.652344 -40.402344 -4.625 -39.765625 C -5.660156 -39.121094 -6.242188 -38.667969 -6.3125 -38.359375 C -6.488281 -37.96875 -6.425781 -37.5625 -6.25 -37.230469 C -6.066406 -36.839844 -5.789062 -36.585938 -5.410156 -36.46875 C -5.15625 -36.390625 -4.738281 -36.398438 -4.292969 -36.589844 C -3.84375 -36.78125 -2.898438 -37.234375 -1.410156 -38.011719 C 0.304688 -38.886719 1.414062 -39.425781 1.917969 -39.628906 C 2.367188 -39.820312 2.609375 -39.796875 2.648438 -39.566406 C 2.695312 -39.273438 2.621094 -38.246094 2.429688 -36.476562 C 2.246094 -34.652344 2 -32.816406 1.835938 -30.875 C 1.613281 -29.285156 1.472656 -27.945312 1.3125 -26.722656 C 1.089844 -25.488281 0.960938 -24.8125 0.910156 -24.742188 C 0.8125 -24.609375 0.648438 -24.519531 0.367188 -24.414062 C 0.0351562 -24.242188 -0.238281 -24.078125 -0.527344 -24.03125 C -1.210938 -23.800781 -1.648438 -23.550781 -1.953125 -23.203125 C -2.304688 -22.789062 -2.421875 -22.410156 -2.355469 -22 C -2.28125 -21.535156 -2.039062 -21.15625 -1.652344 -20.976562 C -1.253906 -20.742188 -0.769531 -20.703125 -0.203125 -20.914062 C 0.203125 -20.976562 0.484375 -21.082031 0.710938 -21.179688 C 0.667969 -20.695312 0.65625 -20.394531 0.683594 -20.21875 C 0.664062 -19.976562 0.574219 -19.0625 0.457031 -17.546875 C 0.292969 -15.964844 0.0898438 -14.257812 -0.0820312 -12.375 C -0.542969 -8.171875 -0.820312 -5.074219 -0.917969 -3.082031 C -1.019531 -1.871094 -0.996094 -0.976562 -0.902344 -0.394531 C -0.84375 -0.0429688 -0.738281 0.238281 -0.605469 0.335938 Z M -0.605469 0.335938 "/></g></g></g><g fill="#000000" fill-opacity="1"><g transform="translate(236.044878, 102.235661)"><g><path d="M 11.210938 -40.648438 C 10.984375 -42.046875 10.523438 -43.050781 9.886719 -43.667969 C 9.1875 -44.273438 8.375 -44.5 7.382812 -44.339844 C 6.566406 -44.207031 5.660156 -43.523438 4.664062 -42.285156 C 3.664062 -41.046875 2.726562 -39.457031 1.898438 -37.53125 C 1.410156 -36.492188 0.847656 -35.144531 0.296875 -33.378906 C -0.257812 -31.617188 -0.808594 -29.851562 -1.304688 -28.09375 C -1.5625 -27.097656 -1.78125 -26.222656 -2.007812 -25.410156 C -2.226562 -24.535156 -2.347656 -23.796875 -2.484375 -23.175781 C -3.382812 -18.363281 -3.5 -14.277344 -2.9375 -10.777344 C -2.429688 -7.269531 -1.3125 -5.171875 0.488281 -4.386719 C 1.148438 -4.015625 1.875 -3.953125 2.691406 -4.085938 C 3.160156 -4.160156 3.671875 -4.304688 4.230469 -4.574219 C 5.6875 -5.167969 7.0625 -6.285156 8.472656 -7.949219 C 8.929688 -8.445312 9.417969 -9.121094 10.003906 -9.933594 C 10.542969 -10.679688 11.128906 -11.492188 11.707031 -12.363281 C 12.707031 -13.960938 13.589844 -15.539062 14.414062 -17.109375 C 15.179688 -18.667969 15.550781 -19.6875 15.476562 -20.152344 C 15.410156 -20.5625 15.238281 -20.890625 14.957031 -21.144531 C 14.617188 -21.390625 14.242188 -21.507812 13.890625 -21.453125 C 13.484375 -21.386719 13.160156 -21.15625 12.90625 -20.875 C 12.613281 -20.46875 12.300781 -19.820312 11.90625 -18.917969 C 10.519531 -15.640625 8.808594 -12.910156 6.890625 -10.6875 C 4.929688 -8.394531 3.378906 -7.246094 2.300781 -7.253906 C 1.824219 -7.238281 1.359375 -7.519531 1.011719 -8.183594 C 0.667969 -8.84375 0.398438 -9.757812 0.191406 -11.042969 C -0.0898438 -12.792969 -0.210938 -13.910156 -0.121094 -14.460938 C -0.078125 -14.949219 0.253906 -15.480469 0.828125 -15.992188 C 1.042969 -16.148438 1.503906 -16.640625 2.089844 -17.453125 C 2.695312 -18.148438 3.339844 -18.972656 3.917969 -19.84375 C 6.394531 -23.414062 8.296875 -27.191406 9.695312 -31.128906 C 11.09375 -35.0625 11.605469 -38.199219 11.210938 -40.648438 Z M 4.691406 -36.183594 C 5.171875 -37.28125 5.71875 -38.324219 6.386719 -39.390625 C 7.050781 -40.457031 7.445312 -40.996094 7.675781 -41.035156 C 7.851562 -41.0625 7.996094 -40.546875 8.085938 -39.605469 C 8.121094 -38.652344 8.085938 -37.75 7.984375 -36.894531 C 7.703125 -34.9375 7.003906 -32.609375 5.882812 -29.914062 C 4.761719 -27.21875 3.476562 -24.796875 2.085938 -22.660156 C 1.703125 -22.058594 1.304688 -21.574219 1.011719 -21.167969 C 0.726562 -20.703125 0.519531 -20.492188 0.464844 -20.480469 C 0.230469 -20.445312 0.273438 -21.289062 0.710938 -23.035156 C 1.027344 -24.761719 1.554688 -26.703125 2.167969 -28.835938 C 2.542969 -30.210938 2.984375 -31.539062 3.480469 -32.9375 C 3.933594 -34.207031 4.355469 -35.292969 4.691406 -36.183594 Z M 4.691406 -36.183594 "/></g></g></g><g fill="#000000" fill-opacity="1"><g transform="translate(251.617051, 99.721305)"><g><path d="M 5.960938 -18.316406 C 6.203125 -20.511719 5.851562 -22.308594 4.910156 -23.710938 C 4 -24.882812 2.957031 -25.433594 1.730469 -25.234375 C 1.613281 -25.214844 1.449219 -25.128906 1.332031 -25.109375 C 1.15625 -25.082031 0.992188 -24.996094 0.875 -24.976562 C 0.707031 -24.890625 0.542969 -24.804688 0.4375 -24.726562 C 0.222656 -24.570312 -0.0429688 -24.351562 -0.34375 -24 C -0.636719 -23.59375 -0.929688 -23.1875 -1.15625 -22.734375 C -1.382812 -22.277344 -1.617188 -21.882812 -1.851562 -21.484375 C -2.148438 -21.078125 -2.285156 -20.816406 -2.390625 -20.738281 C -2.546875 -20.59375 -2.675781 -20.273438 -2.832031 -19.769531 C -2.980469 -19.207031 -3.0625 -18.59375 -3.144531 -17.984375 C -3.457031 -15.839844 -3.464844 -14.042969 -3.230469 -12.585938 L -3.078125 -11.652344 C -2.640625 -10.046875 -1.886719 -9.089844 -0.761719 -8.792969 C -0.382812 -8.675781 0.0351562 -8.683594 0.441406 -8.75 C 0.851562 -8.816406 1.308594 -8.949219 1.738281 -9.257812 C 2.496094 -9.738281 3.238281 -10.695312 3.984375 -12.015625 C 4.375 -12.554688 4.601562 -13.011719 4.789062 -13.339844 C 5.703125 -13.609375 6.394531 -13.777344 6.851562 -13.914062 C 7.878906 -14.199219 8.980469 -14.796875 10.171875 -15.585938 C 11.359375 -16.375 12.363281 -17.195312 13.183594 -18.046875 C 13.59375 -18.472656 13.996094 -18.957031 14.289062 -19.363281 C 14.589844 -19.710938 14.777344 -20.039062 14.847656 -20.351562 C 14.925781 -20.601562 14.945312 -20.84375 14.910156 -21.078125 C 14.890625 -21.195312 14.734375 -21.410156 14.582031 -21.625 C 14.214844 -22.042969 13.789062 -22.09375 13.28125 -21.894531 C 12.714844 -21.683594 12.035156 -21.09375 11.214844 -20.242188 C 10.394531 -19.390625 9.4375 -18.640625 8.347656 -17.984375 C 7.253906 -17.328125 6.535156 -16.972656 6.226562 -17.042969 C 6.050781 -17.015625 5.914062 -17.113281 5.886719 -17.289062 C 5.867188 -17.40625 5.867188 -17.765625 5.960938 -18.316406 Z M 1.4375 -18.902344 C 1.234375 -19.410156 1.257812 -20.011719 1.386719 -20.691406 C 1.515625 -21.371094 1.695312 -21.757812 1.976562 -21.863281 C 2.207031 -21.898438 2.429688 -21.636719 2.652344 -21.015625 C 2.8125 -20.382812 2.867188 -19.671875 2.816406 -18.886719 C 2.734375 -17.914062 2.574219 -17.410156 2.332031 -17.433594 C 2.039062 -17.386719 1.722656 -17.871094 1.4375 -18.902344 Z M -0.128906 -13.023438 C -0.222656 -13.609375 -0.289062 -14.015625 -0.226562 -14.386719 C -0.273438 -14.675781 -0.1875 -14.871094 -0.078125 -14.949219 C -0.0195312 -14.957031 0.105469 -14.917969 0.296875 -14.828125 C 0.433594 -14.730469 0.636719 -14.585938 0.90625 -14.390625 C 1.199219 -14.078125 1.34375 -13.921875 1.363281 -13.804688 C 1.378906 -13.6875 1.242188 -13.425781 1.007812 -13.027344 C 0.625 -12.429688 0.371094 -12.148438 0.253906 -12.128906 C 0.0234375 -12.09375 -0.09375 -12.433594 -0.128906 -13.023438 Z M -0.128906 -13.023438 "/></g></g></g><g fill="#000000" fill-opacity="1"><g transform="translate(267.539178, 97.150444)"><g><path d="M -2.464844 -4.148438 C -2.058594 -3.855469 -1.679688 -3.738281 -1.390625 -3.785156 L -1.332031 -3.792969 C -1.097656 -3.832031 -0.765625 -4.003906 -0.347656 -4.371094 C 0.0820312 -4.679688 0.601562 -5.542969 1.160156 -6.890625 C 1.671875 -8.167969 2.414062 -10.265625 3.378906 -13.171875 C 4.296875 -16.015625 5.164062 -18.425781 5.929688 -20.347656 C 6.707031 -22.207031 7.464844 -23.824219 8.304688 -25.277344 C 9.324219 -27.117188 10.136719 -28.386719 10.859375 -29.101562 C 11.523438 -29.808594 11.71875 -29.71875 11.460938 -28.71875 C 11.234375 -27.90625 11.335938 -27.265625 11.644531 -26.835938 C 11.972656 -26.289062 12.417969 -26.121094 13.117188 -26.234375 C 13.527344 -26.300781 13.847656 -26.53125 14.140625 -26.9375 C 14.328125 -27.269531 14.574219 -27.964844 14.773438 -28.957031 C 14.972656 -29.945312 15.007812 -30.847656 14.882812 -31.605469 C 14.847656 -31.839844 14.761719 -32.003906 14.722656 -32.238281 C 14.414062 -33.027344 13.84375 -33.59375 12.972656 -33.8125 C 12.660156 -33.882812 12.359375 -33.890625 12.070312 -33.84375 C 11.496094 -33.691406 10.890625 -33.355469 10.25 -32.894531 C 9.242188 -32.074219 8.140625 -30.757812 6.9375 -28.945312 C 5.78125 -27.203125 4.625 -25.101562 3.535156 -22.59375 C 2.394531 -20.015625 1.308594 -17.085938 0.292969 -13.75 C -0.00390625 -12.984375 -0.25 -12.289062 -0.40625 -11.785156 C -0.613281 -11.210938 -0.75 -10.949219 -0.761719 -11.007812 C -0.886719 -11.046875 -0.804688 -12.019531 -0.523438 -13.980469 C -0.230469 -15.882812 0.140625 -18.035156 0.65625 -20.394531 C 1.15625 -22.867188 1.375 -24.460938 1.339844 -25.050781 C 1.246094 -25.636719 0.878906 -26.054688 0.183594 -26.300781 C -0.4375 -26.441406 -0.886719 -26.246094 -1.160156 -25.726562 C -1.496094 -25.191406 -1.839844 -24 -2.199219 -22.144531 C -3.453125 -16.199219 -4.066406 -11.851562 -4.109375 -9.152344 C -4.152344 -8.304688 -4.089844 -7.539062 -3.996094 -6.953125 C -3.761719 -5.496094 -3.25 -4.5625 -2.464844 -4.148438 Z M -2.464844 -4.148438 "/></g></g></g><g fill="#000000" fill-opacity="1"><g transform="translate(284.277807, 94.447747)"><g><path d="M 4.097656 -24.660156 L 3.613281 -24.699219 L 3.144531 -24.625 L 3.085938 -24.617188 C 1.464844 -24.292969 -0.117188 -22.960938 -1.527344 -20.578125 C -2.996094 -18.1875 -3.785156 -15.667969 -3.886719 -12.957031 C -3.890625 -12.238281 -3.835938 -11.527344 -3.742188 -10.945312 C -3.5625 -9.835938 -3.226562 -8.875 -2.628906 -8.132812 C -1.773438 -6.894531 -0.582031 -6.191406 0.992188 -6.085938 C 1.417969 -6.035156 1.835938 -6.042969 2.304688 -6.117188 C 3.820312 -6.363281 5.59375 -7.246094 7.621094 -8.769531 C 10.183594 -10.679688 12.734375 -13.425781 15.277344 -16.949219 C 16.214844 -18.175781 16.792969 -19.046875 17.078125 -19.511719 C 17.3125 -19.910156 17.421875 -20.347656 17.363281 -20.695312 C 17.289062 -21.164062 17.046875 -21.542969 16.640625 -21.835938 C 16.1875 -22.0625 15.757812 -22.113281 15.429688 -21.941406 C 15.320312 -21.863281 15.019531 -21.515625 14.511719 -20.953125 C 14.011719 -20.335938 13.464844 -19.648438 12.878906 -18.835938 C 10.804688 -16.105469 8.878906 -13.941406 7.09375 -12.394531 C 5.320312 -10.792969 3.730469 -9.878906 2.351562 -9.535156 C 1.777344 -9.382812 1.308594 -9.308594 1 -9.378906 C 0.648438 -9.320312 0.328125 -9.449219 0.175781 -9.664062 C -0.0976562 -9.859375 -0.328125 -10.179688 -0.519531 -10.628906 C -0.691406 -10.960938 -0.769531 -11.425781 -0.675781 -11.980469 C 0.296875 -12.613281 0.988281 -13.144531 1.46875 -13.523438 C 3.300781 -14.777344 4.628906 -16.1875 5.460938 -17.699219 C 6.304688 -19.152344 6.671875 -20.585938 6.433594 -22.042969 C 6.3125 -22.800781 6.035156 -23.414062 5.667969 -23.835938 C 5.242188 -24.246094 4.71875 -24.519531 4.097656 -24.660156 Z M 0.429688 -17.722656 C 0.703125 -18.246094 1.125 -18.972656 1.808594 -19.921875 C 2.503906 -20.8125 2.90625 -21.292969 3.136719 -21.332031 C 3.664062 -21.417969 3.582031 -20.804688 2.945312 -19.566406 C 2.316406 -18.265625 1.5625 -17.367188 0.8125 -16.828125 C 0.335938 -16.453125 0.0546875 -16.347656 0.0351562 -16.460938 C 0.015625 -16.578125 0.132812 -16.957031 0.429688 -17.722656 Z M 0.429688 -17.722656 "/></g></g></g><path stroke-linecap="butt" transform="matrix(-0.748033, 0.00337983, -0.00337968, -0.747998, 301.259702, 148.738262)" fill="none" stroke-linejoin="miter" d="M 0.000976151 1.498772 L 331.986311 1.500058 " stroke="#000000" stroke-width="3" stroke-opacity="1" stroke-miterlimit="4"/><path stroke-linecap="butt" transform="matrix(-0.748846, -0.000000000000000092, 0.000000000000000092, -0.748005, 188.537046, 55.396772)" fill="none" stroke-linejoin="miter" d="M 0.00252336 1.501774 L 180.796399 1.501774 " stroke="#000000" stroke-width="3" stroke-opacity="1" stroke-miterlimit="4"/><path stroke-linecap="butt" transform="matrix(-0.0131167, 0.749983, -0.747891, -0.0130801, 301.999262, 105.163734)" fill="none" stroke-linejoin="miter" d="M 0.000522372 1.498012 L 55.850754 1.500425 " stroke="#000000" stroke-width="3" stroke-opacity="1" stroke-miterlimit="4"/><path stroke-linecap="butt" transform="matrix(0.000000000000000212, 0.749286, -0.748005, 0.000000000000000212, 55.16781, 53.154985)" fill="none" stroke-linejoin="miter" d="M 0.00168848 1.498565 L 127.784826 1.498565 " stroke="#000000" stroke-width="3" stroke-opacity="1" stroke-miterlimit="4"/></svg>